<mxfile host="app.diagrams.net" modified="2024-07-03T14:13:42.064Z" agent="Mozilla/5.0 (Windows NT 10.0; Win64; x64) AppleWebKit/537.36 (KHTML, like Gecko) Chrome/126.0.0.0 Safari/537.36" version="24.6.4" etag="C1NlhHP0gd9lyDeY4aPY" type="github">
  <diagram name="Page-1" id="Ax_ShogTT-FzsEnMqoin">
    <mxGraphModel>
      <root>
        <mxCell id="0" />
        <mxCell id="1" parent="0" />
      </root>
    </mxGraphModel>
  </diagram>
</mxfile>
